<mxfile host="app.diagrams.net" modified="2021-07-24T21:35:06.986Z" agent="5.0 (Windows NT 10.0; Win64; x64) AppleWebKit/537.36 (KHTML, like Gecko) Chrome/92.0.4515.107 Safari/537.36" etag="VDiXSPi8kxhG83y3XW3E" version="14.9.2" type="github">
  <diagram id="zn2WG8OpFJcc6ndCbWCM" name="Page-1">
    <mxGraphModel dx="633" dy="243" grid="1" gridSize="10" guides="1" tooltips="1" connect="1" arrows="1" fold="1" page="1" pageScale="1" pageWidth="850" pageHeight="1100" math="0" shadow="0">
      <root>
        <mxCell id="0" />
        <mxCell id="1" parent="0" />
        <mxCell id="xqwwxXM2ZZvY7xHnHfG4-2" value="&lt;font style=&quot;font-size: 32px&quot;&gt;Repaire For Me&lt;/font&gt;" style="text;html=1;strokeColor=none;fillColor=none;align=center;verticalAlign=middle;whiteSpace=wrap;rounded=0;" vertex="1" parent="1">
          <mxGeometry x="210" y="340" width="280" height="60" as="geometry" />
        </mxCell>
        <mxCell id="xqwwxXM2ZZvY7xHnHfG4-24" value="User" style="swimlane;childLayout=stackLayout;horizontal=1;startSize=30;horizontalStack=0;rounded=1;fontSize=14;fontStyle=0;strokeWidth=2;resizeParent=0;resizeLast=1;shadow=0;dashed=0;align=center;" vertex="1" parent="1">
          <mxGeometry x="70" y="530" width="160" height="130" as="geometry" />
        </mxCell>
        <mxCell id="xqwwxXM2ZZvY7xHnHfG4-25" value="+id    String&#xa;+name  String&#xa;+phone  String&#xa;+email    String&#xa;+pass       String&#xa; " style="align=left;strokeColor=none;fillColor=none;spacingLeft=4;fontSize=12;verticalAlign=top;resizable=0;rotatable=0;part=1;" vertex="1" parent="xqwwxXM2ZZvY7xHnHfG4-24">
          <mxGeometry y="30" width="160" height="100" as="geometry" />
        </mxCell>
        <mxCell id="xqwwxXM2ZZvY7xHnHfG4-38" style="edgeStyle=orthogonalEdgeStyle;rounded=0;orthogonalLoop=1;jettySize=auto;html=1;exitX=0.5;exitY=1;exitDx=0;exitDy=0;" edge="1" parent="xqwwxXM2ZZvY7xHnHfG4-24" source="xqwwxXM2ZZvY7xHnHfG4-25" target="xqwwxXM2ZZvY7xHnHfG4-25">
          <mxGeometry relative="1" as="geometry" />
        </mxCell>
        <mxCell id="xqwwxXM2ZZvY7xHnHfG4-30" value="" style="edgeStyle=orthogonalEdgeStyle;rounded=0;orthogonalLoop=1;jettySize=auto;html=1;" edge="1" parent="1" source="xqwwxXM2ZZvY7xHnHfG4-27" target="xqwwxXM2ZZvY7xHnHfG4-25">
          <mxGeometry relative="1" as="geometry" />
        </mxCell>
        <mxCell id="xqwwxXM2ZZvY7xHnHfG4-27" value="Location" style="swimlane;childLayout=stackLayout;horizontal=1;startSize=30;horizontalStack=0;rounded=1;fontSize=14;fontStyle=0;strokeWidth=2;resizeParent=0;resizeLast=1;shadow=0;dashed=0;align=center;" vertex="1" parent="1">
          <mxGeometry x="280" y="510" width="160" height="80" as="geometry" />
        </mxCell>
        <mxCell id="xqwwxXM2ZZvY7xHnHfG4-28" value="+Latitude  Double&#xa;+Longitude  Double" style="align=left;strokeColor=none;fillColor=none;spacingLeft=4;fontSize=12;verticalAlign=top;resizable=0;rotatable=0;part=1;" vertex="1" parent="xqwwxXM2ZZvY7xHnHfG4-27">
          <mxGeometry y="30" width="160" height="50" as="geometry" />
        </mxCell>
        <mxCell id="xqwwxXM2ZZvY7xHnHfG4-31" value="Services" style="swimlane;childLayout=stackLayout;horizontal=1;startSize=30;horizontalStack=0;rounded=1;fontSize=14;fontStyle=0;strokeWidth=2;resizeParent=0;resizeLast=1;shadow=0;dashed=0;align=center;" vertex="1" parent="1">
          <mxGeometry x="510" y="540" width="160" height="120" as="geometry" />
        </mxCell>
        <mxCell id="xqwwxXM2ZZvY7xHnHfG4-32" value="+ id  String&#xa;+Name  String&#xa;+Disc  String&#xa;+Rates List&lt;Int&gt;&#xa;+number_of_using Int&#xa;+ images List&lt;ImgUrl &gt;" style="align=left;strokeColor=none;fillColor=none;spacingLeft=4;fontSize=12;verticalAlign=top;resizable=0;rotatable=0;part=1;" vertex="1" parent="xqwwxXM2ZZvY7xHnHfG4-31">
          <mxGeometry y="30" width="160" height="90" as="geometry" />
        </mxCell>
        <mxCell id="xqwwxXM2ZZvY7xHnHfG4-35" value="" style="edgeStyle=orthogonalEdgeStyle;rounded=0;orthogonalLoop=1;jettySize=auto;html=1;" edge="1" parent="1" source="xqwwxXM2ZZvY7xHnHfG4-33" target="xqwwxXM2ZZvY7xHnHfG4-32">
          <mxGeometry relative="1" as="geometry" />
        </mxCell>
        <mxCell id="xqwwxXM2ZZvY7xHnHfG4-33" value="ImgUrl " style="swimlane;childLayout=stackLayout;horizontal=1;startSize=30;horizontalStack=0;rounded=1;fontSize=14;fontStyle=0;strokeWidth=2;resizeParent=0;resizeLast=1;shadow=0;dashed=0;align=center;" vertex="1" parent="1">
          <mxGeometry x="740" y="520" width="160" height="120" as="geometry" />
        </mxCell>
        <mxCell id="xqwwxXM2ZZvY7xHnHfG4-34" value="+url  String &#xa;[ Service_name    String]&#xa;" style="align=left;strokeColor=none;fillColor=none;spacingLeft=4;fontSize=12;verticalAlign=top;resizable=0;rotatable=0;part=1;" vertex="1" parent="xqwwxXM2ZZvY7xHnHfG4-33">
          <mxGeometry y="30" width="160" height="90" as="geometry" />
        </mxCell>
        <mxCell id="xqwwxXM2ZZvY7xHnHfG4-36" value="Technical" style="swimlane;childLayout=stackLayout;horizontal=1;startSize=30;horizontalStack=0;rounded=1;fontSize=14;fontStyle=0;strokeWidth=2;resizeParent=0;resizeLast=1;shadow=0;dashed=0;align=center;" vertex="1" parent="1">
          <mxGeometry x="70" y="720" width="160" height="210" as="geometry" />
        </mxCell>
        <mxCell id="xqwwxXM2ZZvY7xHnHfG4-37" value="+id       String&#xa;+name  String&#xa;+phone  String&#xa;+email    String&#xa;+pass       String&#xa;+Rate List&lt;Int&gt;&#xa;+ Services_name   String&#xa;+number_of_ orders  Int&#xa;+Location " style="align=left;strokeColor=none;fillColor=none;spacingLeft=4;fontSize=12;verticalAlign=top;resizable=0;rotatable=0;part=1;" vertex="1" parent="xqwwxXM2ZZvY7xHnHfG4-36">
          <mxGeometry y="30" width="160" height="180" as="geometry" />
        </mxCell>
        <mxCell id="xqwwxXM2ZZvY7xHnHfG4-39" style="edgeStyle=orthogonalEdgeStyle;rounded=0;orthogonalLoop=1;jettySize=auto;html=1;exitX=0.25;exitY=1;exitDx=0;exitDy=0;entryX=1.006;entryY=0.156;entryDx=0;entryDy=0;entryPerimeter=0;" edge="1" parent="1" source="xqwwxXM2ZZvY7xHnHfG4-28" target="xqwwxXM2ZZvY7xHnHfG4-37">
          <mxGeometry relative="1" as="geometry">
            <mxPoint x="320" y="850" as="targetPoint" />
          </mxGeometry>
        </mxCell>
        <mxCell id="xqwwxXM2ZZvY7xHnHfG4-40" value="Order" style="swimlane;childLayout=stackLayout;horizontal=1;startSize=30;horizontalStack=0;rounded=1;fontSize=14;fontStyle=0;strokeWidth=2;resizeParent=0;resizeLast=1;shadow=0;dashed=0;align=center;" vertex="1" parent="1">
          <mxGeometry x="510" y="740" width="160" height="210" as="geometry" />
        </mxCell>
        <mxCell id="xqwwxXM2ZZvY7xHnHfG4-41" value="+ order id&#xa;+order uid&#xa;+Sender  User&#xa;+Reciever  Technical&#xa;+Stateus     enum.status&#xa;+data          DataTime&#xa;+Price      Double&#xa;+service_rate  Double&#xa;+tech_rate        Double&#xa;[ any_comment    String ]" style="align=left;strokeColor=none;fillColor=none;spacingLeft=4;fontSize=12;verticalAlign=top;resizable=0;rotatable=0;part=1;" vertex="1" parent="xqwwxXM2ZZvY7xHnHfG4-40">
          <mxGeometry y="30" width="160" height="180" as="geometry" />
        </mxCell>
        <mxCell id="xqwwxXM2ZZvY7xHnHfG4-42" value="Messge" style="swimlane;childLayout=stackLayout;horizontal=1;startSize=30;horizontalStack=0;rounded=1;fontSize=14;fontStyle=0;strokeWidth=2;resizeParent=0;resizeLast=1;shadow=0;dashed=0;align=center;" vertex="1" parent="1">
          <mxGeometry x="780" y="740" width="160" height="120" as="geometry" />
        </mxCell>
        <mxCell id="xqwwxXM2ZZvY7xHnHfG4-43" value="+Sender  User&#xa;+Reciever  Technical&#xa;+data          DataTime" style="align=left;strokeColor=none;fillColor=none;spacingLeft=4;fontSize=12;verticalAlign=top;resizable=0;rotatable=0;part=1;" vertex="1" parent="xqwwxXM2ZZvY7xHnHfG4-42">
          <mxGeometry y="30" width="160" height="90" as="geometry" />
        </mxCell>
        <mxCell id="xqwwxXM2ZZvY7xHnHfG4-44" value="advertisement" style="swimlane;childLayout=stackLayout;horizontal=1;startSize=30;horizontalStack=0;rounded=1;fontSize=14;fontStyle=0;strokeWidth=2;resizeParent=0;resizeLast=1;shadow=0;dashed=0;align=center;" vertex="1" parent="1">
          <mxGeometry x="480" y="1010" width="160" height="120" as="geometry" />
        </mxCell>
        <mxCell id="xqwwxXM2ZZvY7xHnHfG4-45" value="Image url   String&#xa;[ title     String ]&#xa;[ disc     String ]" style="align=left;strokeColor=none;fillColor=none;spacingLeft=4;fontSize=12;verticalAlign=top;resizable=0;rotatable=0;part=1;" vertex="1" parent="xqwwxXM2ZZvY7xHnHfG4-44">
          <mxGeometry y="30" width="160" height="90" as="geometry" />
        </mxCell>
      </root>
    </mxGraphModel>
  </diagram>
</mxfile>
